<?xml version="1.0" encoding="utf-8"?>
<!-- Generator: Adobe Illustrator 24.0.3, SVG Export Plug-In . SVG Version: 6.00 Build 0)  -->
<svg version="1.1" xmlns="http://www.w3.org/2000/svg" xmlns:xlink="http://www.w3.org/1999/xlink" x="0px" y="0px"
	 viewBox="0 0 1080.8 1080" style="enable-background:new 0 0 1080.8 1080;" xml:space="preserve">
<style type="text/css">
	.st0{display:none;}
	.st1{display:inline;}
	.st2{clip-path:url(#SVGID_2_);}
	.st3{clip-path:url(#SVGID_4_);fill:#606060;}
	.st4{clip-path:url(#SVGID_4_);}
	.st5{opacity:0.5;clip-path:url(#SVGID_6_);}
	.st6{clip-path:url(#SVGID_8_);}
	.st7{fill:#A9D9BE;}
	.st8{fill:#81A68E;}
	.st9{fill:#FC7560;}
	.st10{fill:#3E606F;}
	.st11{fill:#8DD1DA;}
	.st12{fill:#F3B8B7;}
	.st13{fill:#E7DABE;}
</style>
<g id="Ebene_1" class="st0">
	<g class="st1">
		<g>
			<defs>
				<rect id="SVGID_1_" x="-845.2" y="-561.2" width="1926" height="1926"/>
			</defs>
			<clipPath id="SVGID_2_">
				<use xlink:href="#SVGID_1_"  style="overflow:visible;"/>
			</clipPath>
			<g class="st2">
				<defs>
					<rect id="SVGID_3_" x="-845.2" y="-561.2" width="1926" height="1926"/>
				</defs>
				<clipPath id="SVGID_4_">
					<use xlink:href="#SVGID_3_"  style="overflow:visible;"/>
				</clipPath>
				<path class="st3" d="M928.7,1364.8l-918-530L928.7,1364.8z"/>
				<path class="st3" d="M-586.6,1364.8l918-530L-586.6,1364.8z"/>
				<path class="st3" d="M-479.7,1364.8l918-530L-479.7,1364.8z"/>
				<path class="st3" d="M-372.8,1364.8l918-530L-372.8,1364.8z"/>
				<path class="st3" d="M-265.9,1364.8l918-530L-265.9,1364.8z"/>
				<path class="st3" d="M-159,1364.8l918-530L-159,1364.8z"/>
				<path class="st3" d="M-52.2,1364.8l918-530L-52.2,1364.8z"/>
				<path class="st3" d="M54.7,1364.8l918-530L54.7,1364.8z"/>
				<path class="st3" d="M161.6,1364.8l918-530L161.6,1364.8z"/>
				<path class="st3" d="M802.8,1364.8l276.7-159.7L802.8,1364.8z"/>
				<path class="st3" d="M909.7,1364.8l169.8-98L909.7,1364.8z"/>
				<path class="st3" d="M1016.6,1364.8l62.9-36.3L1016.6,1364.8z"/>
				<path class="st3" d="M-246.9,1364.8l-597.3-344.9L-246.9,1364.8z"/>
				<path class="st3" d="M-140,1364.8l-704.2-406.6L-140,1364.8z"/>
				<path class="st3" d="M-33.2,1364.8l-811.1-468.3L-33.2,1364.8z"/>
				<path class="st3" d="M73.7,1364.8l-918-530L73.7,1364.8z"/>
				<path class="st3" d="M-353.8,1364.8l-490.4-283.2L-353.8,1364.8z"/>
				<path class="st3" d="M-460.7,1364.8l-383.6-221.5L-460.7,1364.8z"/>
				<path class="st3" d="M-674.4,1364.8l-169.8-98L-674.4,1364.8z"/>
				<path class="st3" d="M-781.3,1364.8l-62.9-36.3L-781.3,1364.8z"/>
				<path class="st3" d="M608.1,1364.8l-918-530L608.1,1364.8z"/>
				<path class="st3" d="M715,1364.8l-918-530L715,1364.8z"/>
				<path class="st3" d="M821.9,1364.8l-918-530L821.9,1364.8z"/>
				<path class="st3" d="M375.3,1364.8l704.2-406.6L375.3,1364.8z"/>
				<path class="st3" d="M482.2,1364.8l597.3-344.9L482.2,1364.8z"/>
				<path class="st3" d="M589.1,1364.8l490.4-283.2L589.1,1364.8z"/>
				<path class="st3" d="M696,1364.8l383.6-221.5L696,1364.8z"/>
				<path class="st3" d="M180.6,1364.8l-918-530L180.6,1364.8z"/>
				<path class="st3" d="M287.5,1364.8l-918-530L287.5,1364.8z"/>
				<path class="st3" d="M394.3,1364.8l-918-530L394.3,1364.8z"/>
				<path class="st3" d="M501.2,1364.8l-918-530L501.2,1364.8z"/>
				<path class="st3" d="M268.5,1364.8l811.1-468.3L268.5,1364.8z"/>
				<path class="st3" d="M-790.8,1364.8v-530V1364.8z"/>
				<path class="st3" d="M-737.4,1364.8v-530V1364.8z"/>
				<path class="st3" d="M-683.9,1364.8v-530V1364.8z"/>
				<path class="st3" d="M-630.5,1364.8v-530V1364.8z"/>
				<path class="st3" d="M-577.1,1364.8v-530V1364.8z"/>
				<path class="st3" d="M-523.6,1364.8v-530V1364.8z"/>
				<path class="st3" d="M-470.2,1364.8v-530V1364.8z"/>
				<path class="st3" d="M-416.7,1364.8v-530V1364.8z"/>
				<path class="st3" d="M-363.3,1364.8v-530V1364.8z"/>
				<path class="st3" d="M-309.9,1364.8v-530V1364.8z"/>
				<path class="st3" d="M-256.4,1364.8v-530V1364.8z"/>
				<path class="st3" d="M-203,1364.8v-530V1364.8z"/>
				<path class="st3" d="M-149.5,1364.8v-530V1364.8z"/>
				<path class="st3" d="M-96.1,1364.8v-530V1364.8z"/>
				<path class="st3" d="M-42.7,1364.8v-530V1364.8z"/>
				<path class="st3" d="M10.8,1364.8v-530V1364.8z"/>
				<path class="st3" d="M64.2,1364.8v-530V1364.8z"/>
				<path class="st3" d="M117.6,1364.8v-530V1364.8z"/>
				<path class="st3" d="M171.1,1364.8v-530V1364.8z"/>
				<path class="st3" d="M224.5,1364.8v-530V1364.8z"/>
				<path class="st3" d="M278,1364.8v-530V1364.8z"/>
				<path class="st3" d="M331.4,1364.8v-530V1364.8z"/>
				<path class="st3" d="M384.8,1364.8v-530V1364.8z"/>
				<path class="st3" d="M438.3,1364.8v-530V1364.8z"/>
				<path class="st3" d="M491.7,1364.8v-530V1364.8z"/>
				<path class="st3" d="M545.2,1364.8v-530V1364.8z"/>
				<path class="st3" d="M598.6,1364.8v-530V1364.8z"/>
				<path class="st3" d="M652,1364.8v-530V1364.8z"/>
				<path class="st3" d="M705.5,1364.8v-530V1364.8z"/>
				<path class="st3" d="M758.9,1364.8v-530V1364.8z"/>
				<path class="st3" d="M812.3,1364.8v-530V1364.8z"/>
				<path class="st3" d="M865.8,1364.8v-530V1364.8z"/>
				<path class="st3" d="M919.2,1364.8v-530V1364.8z"/>
				<path class="st3" d="M972.7,1364.8v-530V1364.8z"/>
				<path class="st3" d="M1026.1,1364.8v-530V1364.8z"/>
				<path class="st3" d="M-567.5,1364.8l-276.7-159.7L-567.5,1364.8z"/>
				<path class="st3" d="M-844.2,896.5l106.9-61.7L-844.2,896.5z"/>
				<path class="st3" d="M-844.2,958.2l213.8-123.4L-844.2,958.2z"/>
				<path class="st3" d="M-844.2,1019.9l320.6-185.1L-844.2,1019.9z"/>
				<path class="st3" d="M-844.2,1081.6l427.5-246.8L-844.2,1081.6z"/>
				<path class="st3" d="M-844.2,1143.3l534.4-308.5L-844.2,1143.3z"/>
				<path class="st3" d="M-844.2,1205.1L-203,834.8L-844.2,1205.1z"/>
				<path class="st3" d="M-844.2,1266.8l748.1-431.9L-844.2,1266.8z"/>
				<path class="st3" d="M-844.2,1328.5l855-493.6L-844.2,1328.5z"/>
				<path class="st3" d="M-800.3,1364.8l918-530L-800.3,1364.8z"/>
				<line class="st3" x1="1079.5" y1="958.2" x2="865.8" y2="834.8"/>
				<path class="st3" d="M1035.6,1364.8l-918-530L1035.6,1364.8z"/>
				<line class="st3" x1="1079.5" y1="1328.5" x2="224.5" y2="834.8"/>
				<line class="st3" x1="1079.5" y1="1266.8" x2="331.4" y2="834.8"/>
				<line class="st3" x1="1079.5" y1="1205.1" x2="438.3" y2="834.8"/>
				<line class="st3" x1="1079.5" y1="1143.3" x2="545.2" y2="834.8"/>
				<line class="st3" x1="1079.5" y1="1081.6" x2="652" y2="834.8"/>
				<line class="st3" x1="1079.5" y1="1019.9" x2="758.9" y2="834.8"/>
				<line class="st3" x1="1079.5" y1="896.5" x2="972.7" y2="834.8"/>
				<path class="st3" d="M1026.1-561.2v1396V-561.2z"/>
				<path class="st3" d="M972.7-561.2v1396V-561.2z"/>
				<path class="st3" d="M919.2-561.2v1396V-561.2z"/>
				<path class="st3" d="M865.8-561.2v1396V-561.2z"/>
				<path class="st3" d="M812.3-561.2v1396V-561.2z"/>
				<path class="st3" d="M758.9-561.2v1396V-561.2z"/>
				<path class="st3" d="M705.5-561.2v1396V-561.2z"/>
				<path class="st3" d="M652-561.2v1396V-561.2z"/>
				<path class="st3" d="M598.6-561.2v1396V-561.2z"/>
				<path class="st3" d="M545.2-561.2v1396V-561.2z"/>
				<path class="st3" d="M491.7-561.2v1396V-561.2z"/>
				<path class="st3" d="M438.3-561.2v1396V-561.2z"/>
				<path class="st3" d="M384.8-561.2v1396V-561.2z"/>
				<path class="st3" d="M331.4-561.2v1396V-561.2z"/>
				<path class="st3" d="M278-561.2v1396V-561.2z"/>
				<path class="st3" d="M224.5-561.2v1396V-561.2z"/>
				<path class="st3" d="M171.1-561.2v1396V-561.2z"/>
				<path class="st3" d="M117.6-561.2v1396V-561.2z"/>
				<path class="st3" d="M64.2-561.2v1396V-561.2z"/>
				<path class="st3" d="M10.8-561.2v1396V-561.2z"/>
				<path class="st3" d="M-42.7-561.2v1396V-561.2z"/>
				<path class="st3" d="M-96.1-561.2v1396V-561.2z"/>
				<path class="st3" d="M-149.5-561.2v1396V-561.2z"/>
				<path class="st3" d="M-203-561.2v1396V-561.2z"/>
				<path class="st3" d="M-256.4-561.2v1396V-561.2z"/>
				<path class="st3" d="M-309.9-561.2v1396V-561.2z"/>
				<path class="st3" d="M-363.3-561.2v1396V-561.2z"/>
				<path class="st3" d="M-416.7-561.2v1396V-561.2z"/>
				<path class="st3" d="M-470.2-561.2v1396V-561.2z"/>
				<path class="st3" d="M-523.6-561.2v1396V-561.2z"/>
				<path class="st3" d="M-577.1-561.2v1396V-561.2z"/>
				<path class="st3" d="M-630.5-561.2v1396V-561.2z"/>
				<path class="st3" d="M-683.9-561.2v1396V-561.2z"/>
				<path class="st3" d="M-737.4-561.2v1396V-561.2z"/>
				<path class="st3" d="M-790.8-561.2v1396V-561.2z"/>
				<path class="st3" d="M291.2-561.2L-844.2,94.4L291.2-561.2z"/>
				<line class="st3" x1="-737.4" y1="834.8" x2="1079.5" y2="-214.2"/>
				<line class="st3" x1="-630.5" y1="834.8" x2="1079.5" y2="-152.5"/>
				<line class="st3" x1="-523.6" y1="834.8" x2="1079.5" y2="-90.8"/>
				<line class="st3" x1="-416.7" y1="834.8" x2="1079.5" y2="-29.1"/>
				<line class="st3" x1="-309.9" y1="834.8" x2="1079.5" y2="32.7"/>
				<line class="st3" x1="-203" y1="834.8" x2="1079.5" y2="94.4"/>
				<line class="st3" x1="-96.1" y1="834.8" x2="1079.5" y2="156.1"/>
				<line class="st3" x1="10.8" y1="834.8" x2="1079.5" y2="217.8"/>
				<line class="st3" x1="117.6" y1="834.8" x2="1079.5" y2="279.5"/>
				<line class="st3" x1="224.5" y1="834.8" x2="1079.5" y2="341.2"/>
				<line class="st3" x1="331.4" y1="834.8" x2="1079.5" y2="402.9"/>
				<line class="st3" x1="438.3" y1="834.8" x2="1079.5" y2="464.6"/>
				<line class="st3" x1="545.2" y1="834.8" x2="1079.5" y2="526.3"/>
				<line class="st3" x1="652" y1="834.8" x2="1079.5" y2="588"/>
				<line class="st3" x1="758.9" y1="834.8" x2="1079.5" y2="649.7"/>
				<line class="st3" x1="865.8" y1="834.8" x2="1079.5" y2="711.4"/>
				<line class="st3" x1="972.7" y1="834.8" x2="1079.5" y2="773.1"/>
				<path class="st3" d="M-737.4,834.8l-106.9-61.7L-737.4,834.8z"/>
				<path class="st3" d="M-630.5,834.8l-213.8-123.4L-630.5,834.8z"/>
				<path class="st3" d="M-523.6,834.8l-320.6-185.1L-523.6,834.8z"/>
				<path class="st3" d="M-416.7,834.8L-844.2,588L-416.7,834.8z"/>
				<path class="st3" d="M-309.9,834.8l-534.4-308.5L-309.9,834.8z"/>
				<path class="st3" d="M478.5-561.2l601.1,347L478.5-561.2z"/>
				<path class="st3" d="M371.6-561.2l707.9,408.7L371.6-561.2z"/>
				<path class="st3" d="M264.7-561.2l814.8,470.4L264.7-561.2z"/>
				<path class="st3" d="M157.8-561.2l921.7,532.1L157.8-561.2z"/>
				<path class="st3" d="M718.7-561.2l-1563,902.4L718.7-561.2z"/>
				<path class="st3" d="M611.8-561.2L-844.2,279.5L611.8-561.2z"/>
				<path class="st3" d="M505-561.2l-1349.2,779L505-561.2z"/>
				<path class="st3" d="M398.1-561.2L-844.2,156.1L398.1-561.2z"/>
				<path class="st3" d="M1012.9-561.2l66.7,38.5L1012.9-561.2z"/>
				<path class="st3" d="M906-561.2L1079.5-461L906-561.2z"/>
				<path class="st3" d="M799.1-561.2l280.4,161.9L799.1-561.2z"/>
				<path class="st3" d="M692.2-561.2l387.3,223.6L692.2-561.2z"/>
				<path class="st3" d="M585.3-561.2l494.2,285.3L585.3-561.2z"/>
				<path class="st3" d="M-203,834.8l-641.3-370.2L-203,834.8z"/>
				<path class="st3" d="M-96.1,834.8l-748.1-431.9L-96.1,834.8z"/>
				<path class="st3" d="M10.8,834.8l-855-493.6L10.8,834.8z"/>
				<path class="st3" d="M117.6,834.8l-961.9-555.3L117.6,834.8z"/>
				<path class="st3" d="M224.5,834.8L-844.2,217.8L224.5,834.8z"/>
				<path class="st3" d="M331.4,834.8L-844.2,156.1L331.4,834.8z"/>
				<path class="st3" d="M438.3,834.8L-844.2,94.4L438.3,834.8z"/>
				<path class="st3" d="M545.2,834.8L-844.2,32.7L545.2,834.8z"/>
				<path class="st3" d="M652,834.8L-844.2-29.1L652,834.8z"/>
				<path class="st3" d="M758.9,834.8L-844.2-90.8L758.9,834.8z"/>
				<path class="st3" d="M865.8,834.8l-1710-987.3L865.8,834.8z"/>
				<path class="st3" d="M972.7,834.8l-1816.9-1049L972.7,834.8z"/>
				<path class="st3" d="M1079.5,834.8L-844.2-275.9L1079.5,834.8z"/>
				<path class="st3" d="M1079.5,773.1L-844.2-337.6L1079.5,773.1z"/>
				<path class="st3" d="M1079.5,711.4L-844.2-399.3L1079.5,711.4z"/>
				<path class="st3" d="M1079.5,649.7L-844.2-461L1079.5,649.7z"/>
				<path class="st3" d="M1079.5,588L-844.2-522.7L1079.5,588z"/>
				<path class="st3" d="M-804.1-561.2L1079.5,526.3L-804.1-561.2z"/>
				<path class="st3" d="M-697.2-561.2L1079.5,464.6L-697.2-561.2z"/>
				<path class="st3" d="M-590.3-561.2l1669.8,964.1L-590.3-561.2z"/>
				<path class="st3" d="M-483.4-561.2l1563,902.4L-483.4-561.2z"/>
				<path class="st3" d="M-376.5-561.2l1456.1,840.7L-376.5-561.2z"/>
				<path class="st3" d="M51-561.2L1079.5,32.7L51-561.2z"/>
				<path class="st3" d="M-55.9-561.2L1079.5,94.4L-55.9-561.2z"/>
				<path class="st3" d="M-162.8-561.2l1242.3,717.3L-162.8-561.2z"/>
				<path class="st3" d="M-269.7-561.2l1349.2,779L-269.7-561.2z"/>
				<path class="st3" d="M-844.2,588L1079.5-522.7L-844.2,588z"/>
				<path class="st3" d="M1039.4-561.2L-844.2,526.3L1039.4-561.2z"/>
				<path class="st3" d="M932.5-561.2L-844.2,464.6L932.5-561.2z"/>
				<path class="st3" d="M825.6-561.2L-844.2,402.9L825.6-561.2z"/>
				<path class="st3" d="M-844.2,649.7L1079.5-461L-844.2,649.7z"/>
				<path class="st3" d="M-844.2,711.4L1079.5-399.3L-844.2,711.4z"/>
				<path class="st3" d="M-844.2,773.1L1079.5-337.6L-844.2,773.1z"/>
				<path class="st3" d="M-844.2,834.8L1079.5-275.9L-844.2,834.8z"/>
				<path class="st3" d="M184.3-561.2L-844.2,32.7L184.3-561.2z"/>
				<path class="st3" d="M77.5-561.2L-844.2-29.1L77.5-561.2z"/>
				<path class="st3" d="M-29.4-561.2L-844.2-90.8L-29.4-561.2z"/>
				<path class="st3" d="M-136.3-561.2l-707.9,408.7L-136.3-561.2z"/>
				<path class="st3" d="M-243.2-561.2l-601.1,347L-243.2-561.2z"/>
				<path class="st3" d="M-350-561.2l-494.2,285.3L-350-561.2z"/>
				<path class="st3" d="M-456.9-561.2l-387.3,223.6L-456.9-561.2z"/>
				<path class="st3" d="M-563.8-561.2l-280.4,161.9L-563.8-561.2z"/>
				<path class="st3" d="M-670.7-561.2L-844.2-461L-670.7-561.2z"/>
				<path class="st3" d="M-777.6-561.2l-66.7,38.5L-777.6-561.2z"/>
				<path class="st3" d="M-693.4,1364.8l918-530L-693.4,1364.8z"/>
				<g class="st4">
					<defs>
						<rect id="SVGID_5_" x="-845.2" y="-561.2" width="1926" height="1926"/>
					</defs>
					<clipPath id="SVGID_6_">
						<use xlink:href="#SVGID_5_"  style="overflow:visible;"/>
					</clipPath>
					<g class="st5">
						<g>
							<defs>
								<rect id="SVGID_7_" x="-843.9" y="-560.9" width="1923.3" height="1923.3"/>
							</defs>
							<clipPath id="SVGID_8_">
								<use xlink:href="#SVGID_7_"  style="overflow:visible;"/>
							</clipPath>
							<rect x="-843.9" y="-560.9" class="st6" width="1923.3" height="1923.3"/>
						</g>
					</g>
				</g>
			</g>
		</g>
	</g>
</g>
<g id="Ebene_2">
	<path class="st7" d="M572.9-607v-718.5c198.4,0,359.2,160.8,359.2,359.2S771.3-607,572.9-607z"/>
	<path class="st7" d="M210.8-1325.4v359.2h-359.2C-148.4-1164.6,12.4-1325.4,210.8-1325.4z"/>
	<path class="st8" d="M210.8-966.2C210.8-767.8,50-607-148.4-607v-359.2H210.8z"/>
	<path class="st8" d="M1650.5-967c0-198.4-160.8-359.2-359.2-359.2V-967H1650.5z"/>
	<path class="st7" d="M570-247.8H210.8V-607C409.2-607,570-446.2,570-247.8z"/>
	<path class="st8" d="M210.8-247.8c-198.4,0-359.2-160.8-359.2-359.2h359.2V-247.8z"/>
	<path class="st8" d="M1291.3-247.8c-198.4,0-359.2-160.8-359.2-359.2h359.2V-247.8z"/>
	<path class="st8" d="M570-966.2C570-767.8,409.2-607,210.8-607v-359.2H570z"/>
	<path class="st8" d="M932.1-966.2c0,198.4,160.8,359.2,359.2,359.2v-359.2H932.1z"/>
	<path class="st7" d="M1650.5-607c0-198.4-160.8-359.2-359.2-359.2V-607H1650.5z"/>
	<circle class="st7" cx="391.1" cy="-1146.6" r="178.9"/>
	<circle class="st7" cx="1110.5" cy="-1145.4" r="178.9"/>
	<circle class="st7" cx="1470.9" cy="-427.4" r="178.9"/>
	<circle class="st7" cx="752.5" cy="-427.4" r="178.9"/>
	<g>
		<path class="st9" d="M433.3,433.3V1.6c119.2,0,215.8,96.6,215.8,215.8S552.5,433.3,433.3,433.3z"/>
		<path class="st9" d="M649.2,1080.7V649.1c-119.2,0-215.8,96.6-215.8,215.8S530,1080.7,649.2,1080.7z"/>
		<path class="st9" d="M0.9,649.1h431.6c0,119.2-96.6,215.8-215.8,215.8S0.9,768.3,0.9,649.1z"/>
		<path class="st10" d="M865,649.1v431.6c-119.2,0-215.8-96.6-215.8-215.8S745.8,649.1,865,649.1z"/>
		<path class="st11" d="M215.8,1.6v215.8H0C0,98.3,96.6,1.6,215.8,1.6z"/>
		<path class="st9" d="M215.8,217.4c0,119.2-96.6,215.8-215.8,215.8V217.4H215.8z"/>
		<path class="st11" d="M865,649.1v215.8h215.8C1080.8,745.7,984.2,649.1,865,649.1z"/>
		<path class="st12" d="M865,864.9c0,119.2,96.6,215.8,215.8,215.8V864.9H865z"/>
		<path class="st10" d="M433.3,865.4H217.5v215.8C336.7,1081.2,433.3,984.6,433.3,865.4z"/>
		<path class="st11" d="M217.5,865.4C98.3,865.4,1.7,962,1.7,1081.2h215.8V865.4z"/>
		<path class="st13" d="M1080.8,217C1080.8,97.8,984.2,1.2,865,1.2V217H1080.8z"/>
		<path class="st10" d="M431.6,649.1H215.8V433.3C335,433.3,431.6,529.9,431.6,649.1z"/>
		<path class="st12" d="M215.8,649.1C96.6,649.1,0,552.5,0,433.3h215.8V649.1z"/>
		<path class="st12" d="M865,649.1c-119.2,0-215.8-96.6-215.8-215.8H865V649.1z"/>
		<path class="st11" d="M431.6,217.4c0,119.2-96.6,215.8-215.8,215.8V217.4H431.6z"/>
		<path class="st11" d="M649.2,217.4c0,119.2,96.6,215.8,215.8,215.8V217.4H649.2z"/>
		<path class="st10" d="M1080.8,433.3c0-119.2-96.6-215.8-215.8-215.8v215.8H1080.8z"/>
		<circle class="st13" cx="324.1" cy="109.1" r="107.5"/>
		<circle class="st12" cx="756.4" cy="109.8" r="107.5"/>
		<circle class="st9" cx="972.9" cy="541.2" r="107.5"/>
		<circle class="st11" cx="541.3" cy="541.2" r="107.5"/>
	</g>
</g>
</svg>
